# xmcd
#
# Track frame offsets:
#	150
#	14870
#	27415
#	40140
#	56535
#	70788
#	84416
#	97945
#	109845
#	125426
#	143667
#	158203
#
# Disc length: 2280 seconds
#
# Revision: 0
# Processed by: cddbd v1.5.1PL0 Copyright (c) Steve Scherf et al.
# Submitted via: dBpowerAMP V4.0
#
DISCID=9b08e60c
DTITLE=Michael Bright - By Special Request
DYEAR=1900
DGENRE=
TTITLE0=Jesus Put A Rainbow In My Heart
TTITLE1=Filled With The Spirit
TTITLE2=I'll Never Be Departed
TTITLE3=I Know A Man Who Can
TTITLE4=Nothings Too Good To Be True
TTITLE5=Walking In That City
TTITLE6=You May Not Have Time Tomorrow
TTITLE7=God Is Still The Same
TTITLE8=I Go To The Rock
TTITLE9=Take Time For Jesus
TTITLE10=I've Got A Joy In My Heart
TTITLE11=I Went To My Knees With Nothing
EXTD=
EXTT0=
EXTT1=
EXTT2=
EXTT3=
EXTT4=
EXTT5=
EXTT6=
EXTT7=
EXTT8=
EXTT9=
EXTT10=
EXTT11=
PLAYORDER=
